<svg width="100" height="100" viewBox="0 0 100 100" fill="none" xmlns="http://www.w3.org/2000/svg">
<path d="M87.5 53.2917C86.8445 60.3842 84.1827 67.1434 79.826 72.7783C75.4693 78.4132 69.5979 82.6908 62.8988 85.1106C56.1996 87.5303 48.9499 87.9922 41.9979 86.442C35.0459 84.8919 28.6791 81.3939 23.6426 76.3574C18.6061 71.3209 15.1081 64.9541 13.5579 58.0021C12.0078 51.0501 12.4696 43.8004 14.8894 37.1012C17.3092 30.4021 21.5868 24.5307 27.2217 20.174C32.8566 15.8172 39.6158 13.1554 46.7083 12.5C42.5559 18.1178 40.5577 25.0394 41.0772 32.0059C41.5967 38.9724 44.5994 45.5211 49.5392 50.4608C54.4789 55.4006 61.0276 58.4033 67.9941 58.9228C74.9606 59.4423 81.8822 57.4441 87.5 53.2917Z" stroke="black" stroke-width="5" stroke-linecap="round" stroke-linejoin="round"/>
</svg>
