<svg width="100" height="100" viewBox="0 0 100 100" fill="none" xmlns="http://www.w3.org/2000/svg">
<line x1="18.5" y1="78.5" x2="83.5" y2="78.5" stroke="black" stroke-width="5" stroke-linecap="round"/>
<path d="M18.8733 78.6365C3.4755 78.6365 0.482082 51.2683 21.8667 51.2683" stroke="black" stroke-width="5" stroke-linecap="round"/>
<path d="M80.8793 78.6364C98.8397 78.6364 97.5568 51.6959 83.4451 51.6959" stroke="black" stroke-width="5" stroke-linecap="round"/>
<path d="M20.2591 51.6983C20.4966 53.0584 21.7917 53.9685 23.1518 53.731C24.512 53.4936 25.4221 52.1984 25.1846 50.8383L20.2591 51.6983ZM56.8848 37.0878C57.5554 38.2947 59.0774 38.7296 60.2843 38.0591C61.4913 37.3886 61.9262 35.8665 61.2556 34.6596L56.8848 37.0878ZM25.1846 50.8383C23.0262 38.4766 28.8544 31.0675 35.9409 28.6145C43.1936 26.104 52.1598 28.5827 56.8848 37.0878L61.2556 34.6596C55.29 23.9214 43.7302 20.6271 34.3054 23.8896C24.7143 27.2096 17.7136 37.1194 20.2591 51.6983L25.1846 50.8383Z" fill="black"/>
<path d="M57.7232 33.7677C56.5601 34.5117 56.2203 36.0577 56.9643 37.2208C57.7083 38.3839 59.2543 38.7237 60.4174 37.9797L57.7232 33.7677ZM80.9961 51.1934C80.7186 52.5459 81.5901 53.8674 82.9426 54.1449C84.2951 54.4224 85.6166 53.551 85.8941 52.1984L80.9961 51.1934ZM60.4174 37.9797C65.7459 34.5712 71.6111 34.7363 75.7168 37.2086C79.7304 39.6254 82.3825 44.4371 80.9961 51.1934L85.8941 52.1984C87.6826 43.4822 84.2248 36.4952 78.296 32.9252C72.4594 29.4107 64.5497 29.4009 57.7232 33.7677L60.4174 37.9797Z" fill="black"/>
<path d="M79.7112 33.3849C81.7124 25.9164 77.2803 18.2397 69.8117 16.2385C62.3432 14.2373 54.6665 18.6695 52.6653 26.138" stroke="black" stroke-width="5" stroke-linecap="round" stroke-linejoin="round"/>
<path d="M67.45 3V8" stroke="black" stroke-width="5" stroke-linecap="round" stroke-linejoin="round"/>
<path d="M48 11.05L51.55 14.6" stroke="black" stroke-width="5" stroke-linecap="round" stroke-linejoin="round"/>
<path d="M89.95 30.5H94.95" stroke="black" stroke-width="5" stroke-linecap="round" stroke-linejoin="round"/>
<path d="M83.35 14.6L86.9 11.05" stroke="black" stroke-width="5" stroke-linecap="round" stroke-linejoin="round"/>
</svg>
