<svg width="100" height="100" viewBox="0 0 100 100" fill="none" xmlns="http://www.w3.org/2000/svg">
<line x1="14.2361" y1="76.5" x2="64.918" y2="76.5" stroke="black" stroke-width="5" stroke-linecap="round"/>
<path d="M13.9995 76.4751C1.81297 76.4351 -0.727151 55.4492 16.1976 55.5047" stroke="black" stroke-width="5" stroke-linecap="round"/>
<path d="M63.7853 76.4771C76.6491 76.4218 75.8132 55.8085 65.7059 55.852" stroke="black" stroke-width="5" stroke-linecap="round"/>
<path d="M14.3913 55.9324C14.6288 57.2925 15.9239 58.2026 17.284 57.9651C18.6442 57.7276 19.5543 56.4325 19.3168 55.0724L14.3913 55.9324ZM43.3956 44.5498C44.0661 45.7567 45.5881 46.1916 46.7951 45.5211C48.0021 44.8505 48.4369 43.3285 47.7664 42.1216L43.3956 44.5498ZM19.3168 55.0724C17.6516 45.5351 22.1348 39.9417 27.4728 38.0939C32.977 36.1886 39.7914 38.0621 43.3956 44.5498L47.7664 42.1216C42.9216 33.4008 33.5137 30.7118 25.8373 33.369C17.9947 36.0837 12.339 44.1779 14.3913 55.9324L19.3168 55.0724Z" fill="black"/>
<path d="M44.2339 41.2296C43.0708 41.9737 42.7311 43.5197 43.4751 44.6828C44.2191 45.8459 45.7651 46.1856 46.9282 45.4416L44.2339 41.2296ZM62.3961 55.3378C62.1185 56.6903 62.99 58.0118 64.3425 58.2893C65.695 58.5668 67.0165 57.6954 67.294 56.3428L62.3961 55.3378ZM46.9282 45.4416C50.9824 42.8483 55.4034 42.9951 58.4668 44.8397C61.438 46.6289 63.4496 50.2036 62.3961 55.3378L67.294 56.3428C68.7497 49.2488 65.9324 43.4987 61.046 40.5563C56.2517 37.6694 49.7862 37.678 44.2339 41.2296L46.9282 45.4416Z" fill="black"/>
<line x1="85" y1="58.5" x2="72" y2="58.5" stroke="black" stroke-width="5"/>
<path d="M84.5943 58.5199C96.1475 58.4793 95.3832 40.1818 86.3057 40.2137" stroke="black" stroke-width="5" stroke-linecap="round"/>
<path d="M40.4613 40.2625C40.7067 41.6212 42.0071 42.5238 43.3658 42.2784C44.7245 42.033 45.6271 40.7326 45.3817 39.3739L40.4613 40.2625ZM66.094 30.2911C66.7615 31.4998 68.2824 31.9385 69.4911 31.271C70.6997 30.6036 71.1384 29.0827 70.471 27.874L66.094 30.2911ZM45.3817 39.3739C43.8365 30.8183 47.7358 25.9789 52.255 24.4245C56.9453 22.8111 62.8803 24.4716 66.094 30.2911L70.471 27.874C66.0665 19.8983 57.5832 17.3042 50.6286 19.6963C43.503 22.1473 38.5308 29.5734 40.4613 40.2625L45.3817 39.3739Z" fill="black"/>
<path d="M66.8889 26.8689C65.7258 27.6129 65.3861 29.1589 66.1301 30.322C66.8741 31.4851 68.4201 31.8249 69.5832 31.0809L66.8889 26.8689ZM83.0853 39.701C82.8078 41.0536 83.6793 42.375 85.0318 42.6525C86.3843 42.9301 87.7057 42.0586 87.9833 40.7061L83.0853 39.701ZM69.5832 31.0809C73.1472 28.801 77.0128 28.9408 79.6753 30.544C82.2456 32.0917 84.0108 35.1907 83.0853 39.701L87.9833 40.7061C89.3109 34.2359 86.7401 28.9616 82.2545 26.2606C77.8611 23.6151 71.951 23.6308 66.8889 26.8689L69.5832 31.0809Z" fill="black"/>
</svg>
