<svg width="100" height="100" viewBox="0 0 100 100" fill="none" xmlns="http://www.w3.org/2000/svg">
<path d="M21.72 72.64C21.1582 73.1985 20.7749 73.9111 20.6186 74.6877C20.4623 75.4643 20.5402 76.2698 20.8422 77.0021C21.1443 77.7344 21.6569 78.3605 22.3152 78.8011C22.9736 79.2416 23.7479 79.4768 24.54 79.4768C25.3321 79.4768 26.1064 79.2416 26.7648 78.8011C27.4231 78.3605 27.9357 77.7344 28.2378 77.0021C28.5398 76.2698 28.6177 75.4643 28.4614 74.6877C28.3051 73.9111 27.9218 73.1985 27.36 72.64C26.6106 71.895 25.5967 71.4768 24.54 71.4768C23.4833 71.4768 22.4694 71.895 21.72 72.64ZM78.28 27.36C78.8418 26.8015 79.2251 26.0889 79.3814 25.3123C79.5377 24.5357 79.4598 23.7302 79.1578 22.9979C78.8557 22.2656 78.3431 21.6395 77.6848 21.1989C77.0264 20.7584 76.2521 20.5232 75.46 20.5232C74.6679 20.5232 73.8936 20.7584 73.2352 21.1989C72.5769 21.6395 72.0643 22.2656 71.7622 22.9979C71.4602 23.7302 71.3823 24.5357 71.5386 25.3123C71.6949 26.0889 72.0782 26.8015 72.64 27.36C73.3894 28.105 74.4033 28.5232 75.46 28.5232C76.5167 28.5232 77.5305 28.105 78.28 27.36ZM27.36 27.36C27.9218 26.8015 28.3051 26.0889 28.4614 25.3123C28.6177 24.5357 28.5398 23.7302 28.2378 22.9979C27.9357 22.2656 27.4231 21.6395 26.7648 21.1989C26.1064 20.7584 25.3321 20.5232 24.54 20.5232C23.7479 20.5232 22.9736 20.7584 22.3152 21.1989C21.6569 21.6395 21.1443 22.2656 20.8422 22.9979C20.5402 23.7302 20.4623 24.5357 20.6186 25.3123C20.7749 26.0889 21.1582 26.8015 21.72 27.36C22.4694 28.105 23.4833 28.5232 24.54 28.5232C25.5967 28.5232 26.6106 28.105 27.36 27.36ZM72.64 72.64C72.0782 73.1985 71.6949 73.9111 71.5386 74.6877C71.3823 75.4643 71.4602 76.2698 71.7622 77.0021C72.0643 77.7344 72.5769 78.3605 73.2352 78.8011C73.8936 79.2416 74.6679 79.4768 75.46 79.4768C76.2521 79.4768 77.0264 79.2416 77.6848 78.8011C78.3431 78.3605 78.8557 77.7344 79.1578 77.0021C79.4598 76.2698 79.5377 75.4643 79.3814 74.6877C79.2251 73.9111 78.8418 73.1985 78.28 72.64C77.5305 71.895 76.5167 71.4768 75.46 71.4768C74.4033 71.4768 73.3894 71.895 72.64 72.64ZM86 46H79.64L84.84 40.84C85.213 40.467 85.5088 40.0243 85.7106 39.537C85.9125 39.0497 86.0164 38.5274 86.0164 38C86.0164 37.4726 85.9125 36.9503 85.7106 36.463C85.5088 35.9757 85.213 35.533 84.84 35.16C84.467 34.787 84.0243 34.4912 83.537 34.2894C83.0497 34.0875 82.5274 33.9836 82 33.9836C81.4726 33.9836 80.9503 34.0875 80.463 34.2894C79.9757 34.4912 79.533 34.787 79.16 35.16L68.36 46H59.64L68.84 36.84C69.213 36.467 69.5088 36.0243 69.7106 35.537C69.9125 35.0497 70.0164 34.5274 70.0164 34C70.0164 33.4726 69.9125 32.9503 69.7106 32.463C69.5088 31.9757 69.213 31.533 68.84 31.16C68.467 30.787 68.0243 30.4912 67.537 30.2894C67.0497 30.0875 66.5274 29.9836 66 29.9836C65.4726 29.9836 64.9503 30.0875 64.463 30.2894C63.9757 30.4912 63.533 30.787 63.16 31.16L54 40.36V31.64L64.84 20.84C65.213 20.467 65.5088 20.0243 65.7106 19.537C65.9125 19.0497 66.0164 18.5274 66.0164 18C66.0164 17.4726 65.9125 16.9503 65.7106 16.463C65.5088 15.9757 65.213 15.533 64.84 15.16C64.467 14.787 64.0243 14.4912 63.537 14.2894C63.0497 14.0875 62.5274 13.9836 62 13.9836C60.9348 13.9836 59.9132 14.4068 59.16 15.16L54 20.36V14C54 12.9391 53.5786 11.9217 52.8284 11.1716C52.0783 10.4214 51.0609 10 50 10C48.9391 10 47.9217 10.4214 47.1716 11.1716C46.4214 11.9217 46 12.9391 46 14V20.36L40.84 15.16C40.0868 14.4068 39.0652 13.9836 38 13.9836C36.9348 13.9836 35.9132 14.4068 35.16 15.16C34.4068 15.9132 33.9836 16.9348 33.9836 18C33.9836 19.0652 34.4068 20.0868 35.16 20.84L46 31.64V40.36L36.84 31.16C36.467 30.787 36.0243 30.4912 35.537 30.2894C35.0497 30.0875 34.5274 29.9836 34 29.9836C33.4726 29.9836 32.9503 30.0875 32.463 30.2894C31.9757 30.4912 31.533 30.787 31.16 31.16C30.787 31.533 30.4912 31.9757 30.2894 32.463C30.0875 32.9503 29.9836 33.4726 29.9836 34C29.9836 34.5274 30.0875 35.0497 30.2894 35.537C30.4912 36.0243 30.787 36.467 31.16 36.84L40.36 46H31.64L20.84 35.16C20.0868 34.4068 19.0652 33.9836 18 33.9836C16.9348 33.9836 15.9132 34.4068 15.16 35.16C14.4068 35.9132 13.9836 36.9348 13.9836 38C13.9836 39.0652 14.4068 40.0868 15.16 40.84L20.36 46H14C12.9391 46 11.9217 46.4214 11.1716 47.1716C10.4214 47.9217 10 48.9391 10 50C10 51.0609 10.4214 52.0783 11.1716 52.8284C11.9217 53.5786 12.9391 54 14 54H20.36L15.16 59.16C14.7851 59.5319 14.4875 59.9743 14.2844 60.4617C14.0814 60.9491 13.9768 61.472 13.9768 62C13.9768 62.528 14.0814 63.0509 14.2844 63.5383C14.4875 64.0257 14.7851 64.4681 15.16 64.84C15.5319 65.2149 15.9743 65.5125 16.4617 65.7156C16.9491 65.9186 17.472 66.0232 18 66.0232C18.528 66.0232 19.0509 65.9186 19.5383 65.7156C20.0257 65.5125 20.4681 65.2149 20.84 64.84L31.64 54H40.36L31.16 63.16C30.7851 63.5319 30.4875 63.9743 30.2844 64.4617C30.0814 64.9491 29.9768 65.472 29.9768 66C29.9768 66.528 30.0814 67.0509 30.2844 67.5383C30.4875 68.0257 30.7851 68.4681 31.16 68.84C31.5319 69.2149 31.9743 69.5125 32.4617 69.7156C32.9491 69.9186 33.472 70.0232 34 70.0232C34.528 70.0232 35.0509 69.9186 35.5383 69.7156C36.0257 69.5125 36.4681 69.2149 36.84 68.84L46 59.64V68.36L35.16 79.16C34.4068 79.9132 33.9836 80.9348 33.9836 82C33.9836 83.0652 34.4068 84.0868 35.16 84.84C35.9132 85.5932 36.9348 86.0164 38 86.0164C39.0652 86.0164 40.0868 85.5932 40.84 84.84L46 79.64V86C46 87.0609 46.4214 88.0783 47.1716 88.8284C47.9217 89.5786 48.9391 90 50 90C51.0609 90 52.0783 89.5786 52.8284 88.8284C53.5786 88.0783 54 87.0609 54 86V79.64L59.16 84.84C59.5319 85.2149 59.9743 85.5125 60.4617 85.7156C60.9491 85.9186 61.472 86.0232 62 86.0232C62.528 86.0232 63.0509 85.9186 63.5383 85.7156C64.0257 85.5125 64.4681 85.2149 64.84 84.84C65.2149 84.4681 65.5125 84.0257 65.7156 83.5383C65.9186 83.0509 66.0232 82.528 66.0232 82C66.0232 81.472 65.9186 80.9491 65.7156 80.4617C65.5125 79.9743 65.2149 79.5319 64.84 79.16L54 68.36V59.64L63.16 68.84C63.5319 69.2149 63.9743 69.5125 64.4617 69.7156C64.9491 69.9186 65.472 70.0232 66 70.0232C66.528 70.0232 67.0509 69.9186 67.5383 69.7156C68.0257 69.5125 68.4681 69.2149 68.84 68.84C69.2149 68.4681 69.5125 68.0257 69.7156 67.5383C69.9186 67.0509 70.0232 66.528 70.0232 66C70.0232 65.472 69.9186 64.9491 69.7156 64.4617C69.5125 63.9743 69.2149 63.5319 68.84 63.16L59.64 54H68.36L79.16 64.84C79.5319 65.2149 79.9743 65.5125 80.4617 65.7156C80.9491 65.9186 81.472 66.0232 82 66.0232C82.528 66.0232 83.0509 65.9186 83.5383 65.7156C84.0257 65.5125 84.4681 65.2149 84.84 64.84C85.2149 64.4681 85.5125 64.0257 85.7156 63.5383C85.9186 63.0509 86.0232 62.528 86.0232 62C86.0232 61.472 85.9186 60.9491 85.7156 60.4617C85.5125 59.9743 85.2149 59.5319 84.84 59.16L79.64 54H86C87.0609 54 88.0783 53.5786 88.8284 52.8284C89.5786 52.0783 90 51.0609 90 50C90 48.9391 89.5786 47.9217 88.8284 47.1716C88.0783 46.4214 87.0609 46 86 46Z" fill="black"/>
</svg>
